<svg xmlns="http://www.w3.org/2000/svg" xmlns:xlink="http://www.w3.org/1999/xlink" width="1080" zoomAndPan="magnify" viewBox="0 0 810 1439.999935" height="1920" preserveAspectRatio="xMidYMid meet" version="1.0"><defs><clipPath id="f7b7cacf40"><path d="M 195 582 L 636 582 L 636 1164 L 195 1164 Z M 195 582 " clip-rule="nonzero"/></clipPath><clipPath id="581dadd753"><path d="M 121.988281 644.714844 L 594.804688 535.582031 L 725.699219 1102.667969 L 252.882812 1211.804688 Z M 121.988281 644.714844 " clip-rule="nonzero"/></clipPath><clipPath id="fe4d91b528"><path d="M 252.800781 1211.460938 L 725.621094 1102.328125 L 594.726562 535.238281 L 121.90625 644.371094 Z M 252.800781 1211.460938 " clip-rule="nonzero"/></clipPath><clipPath id="0d94c5dd11"><path d="M 184 213 L 501 213 L 501 779 L 184 779 Z M 184 213 " clip-rule="nonzero"/></clipPath><clipPath id="50858fd60f"><path d="M 716.277344 348.199219 L 374.292969 817.269531 L 80.972656 603.417969 L 422.957031 134.347656 Z M 716.277344 348.199219 " clip-rule="nonzero"/></clipPath><clipPath id="565f7ab40c"><path d="M 422.9375 134.332031 L 80.953125 603.402344 L 374.273438 817.253906 L 716.257812 348.183594 Z M 422.9375 134.332031 " clip-rule="nonzero"/></clipPath><clipPath id="f828b7606a"><path d="M 226 217 L 544.105469 217 L 544.105469 1200 L 226 1200 Z M 226 217 " clip-rule="nonzero"/></clipPath></defs><g clip-path="url(#f7b7cacf40)"><g clip-path="url(#581dadd753)"><g clip-path="url(#fe4d91b528)"><path fill="#d1c4c2" d="M 228.964844 1017.761719 C 195.585938 963.21875 188.195312 895.15625 200.914062 832.492188 C 213.632812 769.824219 245.191406 712.1875 284.488281 661.777344 C 310.117188 628.902344 341.308594 597.375 381.542969 586.542969 C 438.40625 571.230469 497.46875 600.902344 544.953125 635.789062 C 591.421875 669.933594 636.851562 717.511719 635.570312 775.183594 C 634.265625 833.941406 584.894531 881.179688 574 938.933594 C 562.421875 1000.308594 593.167969 1073.835938 551.996094 1120.765625 C 532.40625 1143.097656 501.820312 1151.542969 473.058594 1158.90625 C 407.472656 1175.703125 396.675781 1140.488281 350.835938 1105.277344 C 309.625 1073.621094 257.96875 1065.152344 228.964844 1017.761719 " fill-opacity="1" fill-rule="nonzero"/></g></g></g><g clip-path="url(#0d94c5dd11)"><g clip-path="url(#50858fd60f)"><g clip-path="url(#565f7ab40c)"><path fill="#ebe2e1" d="M 246.078125 378.835938 C 228.855469 400.566406 212.515625 423.3125 201.390625 448.707031 C 180.355469 496.734375 179.382812 552.304688 193.921875 602.675781 C 208.457031 653.046875 237.789062 698.382812 274.164062 736.132812 C 296.996094 759.828125 326.667969 782.078125 359.390625 778.628906 C 381.597656 776.289062 400.835938 762.359375 417.101562 747.070312 C 441.460938 724.171875 461.859375 697.074219 477.121094 667.328125 C 489.964844 642.304688 499.300781 613.554688 492.617188 586.234375 C 487.5625 565.585938 473.96875 548.167969 465.824219 528.539062 C 448.523438 486.804688 457.207031 438.921875 471.613281 396.097656 C 486.734375 351.128906 540.132812 220.144531 448.382812 213.902344 C 408.542969 211.191406 372.339844 248.085938 345.382812 272.59375 C 309.472656 305.238281 276.222656 340.804688 246.078125 378.835938 " fill-opacity="1" fill-rule="nonzero"/></g></g></g><g clip-path="url(#f828b7606a)"><path fill="#5d5a57" d="M 235.578125 1192.789062 C 239.742188 1195.792969 242.453125 1196.089844 247.441406 1194.089844 C 251.132812 1192.617188 256.203125 1186.304688 260.355469 1178.027344 C 265.121094 1168.523438 270.949219 1149.128906 273.9375 1132.8125 C 277.09375 1115.601562 280.539062 1102.605469 284.03125 1094.765625 C 285.886719 1090.59375 286.316406 1088.042969 286.914062 1077.628906 C 287.558594 1066.335938 287.902344 1064.523438 291.386719 1054.074219 C 297.417969 1035.984375 301.730469 1024.394531 306.992188 1012.128906 C 309.695312 1005.835938 312.566406 998.21875 313.375 995.210938 C 314.183594 992.203125 316.359375 985.765625 318.214844 980.90625 C 322.003906 970.980469 330.625 944.40625 330.625 942.644531 C 330.625 942.015625 330.15625 941.347656 329.585938 941.15625 C 328.097656 940.660156 327.671875 927.800781 328.949219 922.054688 C 329.519531 919.484375 331.605469 913.769531 333.585938 909.355469 L 337.183594 901.328125 L 336.742188 892.527344 C 336.34375 884.535156 336.511719 883.109375 338.566406 876.996094 C 341.851562 867.214844 351.105469 852.382812 364.269531 835.800781 C 368.003906 831.089844 369.816406 829.457031 371.300781 829.457031 C 373.394531 829.457031 374.726562 831.4375 373.769531 833.109375 C 373.464844 833.644531 373.410156 833.894531 373.652344 833.664062 C 374.59375 832.765625 408.777344 764.296875 411.214844 758.429688 C 412.640625 755.003906 415.332031 747.617188 417.195312 742.011719 C 419.0625 736.40625 423.117188 726.621094 426.210938 720.265625 C 429.710938 713.085938 431.828125 706.277344 434.070312 698.6875 C 435.46875 693.941406 437.09375 689.269531 438.710938 684.59375 C 448.917969 655.132812 453.128906 647.164062 466.105469 632.769531 C 467.886719 630.796875 471.425781 624.824219 473.972656 619.5 C 479.273438 608.421875 483.070312 604.066406 496.175781 594.035156 C 500.566406 590.675781 506.542969 586.046875 509.453125 583.75 C 513 580.957031 515.875 579.394531 518.15625 579.027344 C 521.503906 578.492188 521.554688 578.425781 521.09375 575.574219 C 520.320312 570.789062 516.097656 562.785156 510.179688 554.875 C 504.933594 547.855469 502.914062 543.59375 502.902344 539.535156 C 502.894531 536.917969 501.941406 536.449219 500.582031 538.394531 C 499.863281 539.425781 498.652344 540.015625 497.585938 539.859375 C 496.085938 539.644531 495.246094 537.847656 492.34375 528.671875 L 488.890625 517.742188 L 483.53125 514.144531 C 480.582031 512.167969 477.09375 509.511719 475.777344 508.246094 C 473.582031 506.144531 472.511719 505.867188 463.136719 505.007812 C 456.292969 504.375 450.945312 503.359375 447.015625 501.945312 C 443.777344 500.777344 440.375 500.023438 439.449219 500.265625 C 438.527344 500.511719 433.800781 503.09375 428.945312 506.011719 C 424.09375 508.925781 415.964844 514.085938 410.878906 517.476562 C 402.261719 523.226562 401.652344 523.816406 401.878906 526.152344 C 403.039062 538.15625 401.683594 544.203125 394.710938 558.117188 C 392.675781 562.164062 391.105469 566.683594 390.757812 569.472656 C 390.441406 572.015625 389.46875 579.402344 388.597656 585.878906 C 387.726562 592.355469 386.429688 603.148438 385.710938 609.855469 C 382.847656 636.65625 379.101562 663.109375 376.414062 675.484375 C 372.109375 695.28125 370.292969 705.351562 369.34375 714.683594 C 368.734375 720.675781 367.328125 726.726562 364.566406 735.296875 C 362.414062 741.964844 359.777344 751.886719 358.707031 757.34375 C 357.632812 762.800781 354.699219 773.96875 352.1875 782.164062 C 349.671875 790.359375 346.972656 801.039062 346.191406 805.902344 C 341.949219 832.246094 337.546875 843.839844 319.617188 875.90625 C 310.214844 892.730469 305.605469 903.800781 297.523438 929.003906 C 288.914062 955.835938 288.097656 958.816406 286.082031 970.8125 C 285.109375 976.59375 282.847656 987.765625 281.046875 995.632812 C 279.25 1003.496094 277.195312 1013.152344 276.476562 1017.085938 C 274.6875 1026.875 272.367188 1053.871094 272.171875 1067.148438 C 272.027344 1077.140625 271.796875 1078.628906 269.484375 1084.398438 C 268.097656 1087.867188 266.105469 1095.25 265.0625 1100.804688 C 261.988281 1117.136719 253.46875 1151.699219 251.125 1157.34375 C 248.546875 1163.550781 241.816406 1170.492188 238.792969 1170.0625 C 236.316406 1169.707031 236.027344 1166.855469 237.769531 1160.003906 C 240.324219 1149.949219 249.359375 1121.117188 252.476562 1113.054688 C 254.1875 1108.632812 255.878906 1104.253906 256.230469 1103.328125 C 256.777344 1101.882812 252.082031 1108.175781 247.203125 1115.425781 C 245.675781 1117.695312 243.972656 1122.898438 236.453125 1148.289062 C 231.449219 1165.175781 229.839844 1173.277344 229.835938 1181.578125 C 229.835938 1188.136719 230.238281 1188.929688 235.578125 1192.789062 Z M 339.09375 889.160156 C 339.128906 890.335938 340.589844 887.113281 342.339844 881.996094 C 348.785156 863.144531 355.839844 852.53125 355.832031 861.691406 C 355.832031 863.167969 353.78125 870.429688 351.28125 877.832031 C 348.78125 885.234375 347.21875 890.628906 347.808594 889.816406 C 348.828125 888.421875 364.242188 850.789062 368.828125 838.503906 C 369.992188 835.382812 370.609375 832.824219 370.199219 832.824219 C 369.789062 832.824219 368.222656 834.226562 366.71875 835.941406 C 361.914062 841.417969 348.980469 861.589844 345.242188 869.433594 C 341.527344 877.234375 338.980469 885.402344 339.09375 889.160156 Z M 348.585938 873.996094 C 348.871094 872.867188 348.378906 873.460938 347.492188 875.316406 C 346.601562 877.160156 345.863281 879.25 345.847656 879.941406 C 345.8125 881.382812 347.796875 877.078125 348.585938 873.996094 Z M 343.96875 905.542969 C 344.628906 905.949219 351.960938 893.664062 356.523438 884.519531 C 358.351562 880.851562 360.902344 871.859375 360.839844 869.304688 C 360.816406 868.441406 358.972656 872.375 356.738281 878.042969 C 354.5 883.710938 352.011719 889.386719 351.203125 890.664062 C 350.390625 891.9375 348.269531 894.910156 346.480469 897.265625 C 343.363281 901.375 342.394531 904.566406 343.96875 905.542969 Z M 452.488281 663.785156 C 455.714844 658.042969 458.359375 653.121094 458.359375 652.847656 C 458.359375 651.453125 451.898438 661.550781 449.433594 666.804688 C 445.007812 676.234375 446.082031 675.171875 452.488281 663.785156 Z M 460.585938 673.113281 C 461.417969 678.582031 462.390625 683.054688 462.75 683.054688 C 463.105469 683.054688 463.402344 680.910156 463.402344 678.285156 C 463.402344 675.09375 463.847656 673.019531 464.742188 672.03125 C 465.929688 670.714844 465.964844 669.671875 465.042969 662.917969 C 464.46875 658.722656 463.753906 655.292969 463.449219 655.292969 C 463.144531 655.292969 462.035156 657.066406 460.984375 659.230469 L 459.074219 663.164062 Z M 466.761719 646.339844 L 466.761719 643.21875 L 464.664062 645.195312 C 463.511719 646.277344 462.660156 647.238281 462.773438 647.328125 C 462.886719 647.417969 463.832031 647.9375 464.871094 648.476562 C 466.667969 649.414062 466.761719 649.308594 466.761719 646.339844 Z M 474.671875 763.523438 C 481.945312 814.917969 483.65625 830.304688 484.921875 855.792969 C 485.238281 862.183594 485.789062 867.105469 486.144531 866.734375 C 486.746094 866.101562 489.816406 847.480469 490.554688 839.972656 C 490.847656 836.996094 485.09375 793.757812 481.542969 772.242188 C 480.820312 767.847656 478.480469 758.003906 476.347656 750.367188 C 474.210938 742.730469 472.078125 735.050781 471.605469 733.296875 C 471.132812 731.546875 470.585938 730.273438 470.390625 730.464844 C 470.199219 730.660156 472.125 745.535156 474.671875 763.523438 Z M 477.398438 918.242188 C 468.226562 941.847656 464.042969 971.714844 467.089844 991.84375 C 467.824219 996.703125 469.28125 1004.65625 470.324219 1009.515625 L 472.226562 1018.347656 L 472.742188 1005.304688 C 473.316406 990.777344 474.851562 964.136719 476.039062 948.09375 C 476.714844 939 477.785156 933.9375 483.972656 910.648438 C 492.476562 878.636719 494.519531 869.542969 494.414062 864.179688 C 494.351562 861.101562 493.886719 862.648438 492.414062 870.820312 C 491.1875 877.628906 488.660156 886.746094 485.421875 896.066406 C 482.632812 904.089844 479.019531 914.070312 477.398438 918.242188 Z M 475.15625 1072.300781 C 476.113281 1082.425781 477.121094 1092.03125 477.390625 1093.652344 C 478.527344 1100.386719 479.191406 1092.714844 478.773438 1077.664062 C 478.386719 1063.578125 478.152344 1061.667969 476.324219 1057.558594 C 475.210938 1055.054688 474.101562 1053.207031 473.859375 1053.453125 C 473.617188 1053.695312 474.199219 1062.175781 475.15625 1072.300781 Z M 480.242188 951.878906 C 478.386719 972.65625 477.53125 989.640625 476.820312 1019.917969 C 476.101562 1050.621094 476.132812 1051.898438 477.707031 1054.992188 C 481.261719 1061.96875 481.425781 1060.972656 482.699219 1024.65625 C 483.164062 1011.46875 484.109375 993.863281 484.804688 985.535156 C 485.496094 977.207031 486.832031 959.054688 487.765625 945.207031 C 488.703125 931.355469 489.65625 917.347656 489.890625 914.078125 C 490.628906 903.640625 481.277344 940.285156 480.242188 951.878906 Z M 474.792969 721.128906 L 474.933594 737.324219 L 479.160156 751.207031 C 481.976562 760.453125 483.722656 768.046875 484.390625 773.925781 C 485.5625 784.25 490.097656 811.367188 490.214844 808.722656 C 490.402344 804.398438 487.496094 781.167969 484.441406 762.570312 C 482.613281 751.460938 479.78125 734.214844 478.144531 724.242188 C 476.507812 714.269531 475.167969 705.839844 475.167969 705.519531 C 475.167969 705.199219 475.050781 704.9375 474.90625 704.9375 C 474.765625 704.9375 474.714844 712.222656 474.792969 721.128906 Z M 514.871094 586.246094 C 513 587.601562 511.207031 589.136719 510.886719 589.65625 C 510.566406 590.171875 506.652344 593.476562 502.1875 596.996094 C 492.15625 604.898438 491.671875 605.359375 495.335938 603.53125 C 501.722656 600.332031 509.460938 594.644531 514.636719 589.34375 C 520.402344 583.4375 520.5 582.160156 514.871094 586.246094 Z M 472.003906 1110.375 C 470.496094 1111.425781 467.9375 1114.027344 466.320312 1116.148438 L 463.378906 1120.003906 L 469.144531 1125.96875 C 472.796875 1129.746094 475.308594 1133.167969 475.992188 1135.296875 C 476.585938 1137.152344 478.859375 1143.210938 481.042969 1148.765625 C 483.230469 1154.3125 485.6875 1161.652344 486.511719 1165.074219 C 487.800781 1170.433594 488.882812 1172.453125 494.390625 1179.796875 C 497.898438 1184.476562 501.085938 1188.535156 501.46875 1188.8125 C 501.851562 1189.085938 503.097656 1189.136719 504.234375 1188.917969 C 505.671875 1188.644531 506.179688 1188.105469 505.894531 1187.15625 C 504.027344 1180.957031 503.546875 1174.324219 502.921875 1146.238281 C 502.535156 1128.652344 501.746094 1108.09375 501.167969 1100.546875 C 500.347656 1089.75 500.335938 1083.21875 501.128906 1069.839844 C 502.9375 1039.15625 508.503906 987.605469 513 959.875 C 514.835938 948.53125 516.902344 934.144531 517.585938 927.902344 C 518.269531 921.652344 520.351562 909.15625 522.210938 900.136719 C 526.726562 878.199219 526.792969 870.332031 522.648438 849.292969 C 519.546875 833.5625 518.976562 823.84375 520.503906 812.628906 C 525.074219 779.078125 526.394531 764.878906 529.511719 715.875 C 531.347656 687.042969 531.597656 630.695312 529.953125 617.429688 C 528.898438 608.933594 524.992188 588.226562 524.203125 586.9375 C 523.992188 586.59375 521.972656 588.542969 519.710938 591.257812 C 517.453125 593.976562 513.972656 597.523438 511.984375 599.148438 C 509.988281 600.769531 504.011719 604.816406 498.695312 608.140625 C 487.355469 615.242188 484.566406 617.742188 481.445312 623.605469 C 480.171875 625.992188 477.636719 629.964844 475.8125 632.433594 C 473.984375 634.898438 472.125 638.117188 471.679688 639.585938 C 470.589844 643.160156 471.695312 677.808594 473.074219 683.382812 C 473.660156 685.75 475.3125 692.039062 476.753906 697.363281 C 478.1875 702.683594 481.441406 719.53125 483.976562 734.804688 C 486.511719 750.074219 489.355469 766.730469 490.289062 771.824219 C 493.378906 788.609375 496.171875 817.121094 496.1875 831.984375 C 496.199219 840.183594 496.714844 848.964844 497.445312 853.4375 C 499.128906 863.6875 499.015625 872.046875 497.023438 884.339844 C 494.648438 899.015625 493.074219 914.355469 491.558594 937.574219 C 490.835938 948.679688 489.503906 966.667969 488.597656 977.539062 C 487.695312 988.414062 486.558594 1008.292969 486.078125 1021.714844 C 485.59375 1035.136719 484.847656 1055.082031 484.417969 1066.042969 C 483.738281 1083.332031 483.808594 1086.480469 484.949219 1089.839844 C 487.007812 1095.890625 486.078125 1098.515625 479.988281 1103.859375 C 477.101562 1106.386719 473.511719 1109.316406 472.003906 1110.375 Z M 523.414062 553.277344 C 523.773438 551.277344 523.660156 550.121094 523.105469 550.121094 C 522.621094 550.121094 522.226562 551.699219 522.226562 553.625 C 522.226562 557.761719 522.625 557.640625 523.414062 553.277344 Z M 524.898438 540.023438 C 525.375 538.402344 526.273438 535.460938 526.894531 533.480469 C 528.101562 529.625 527.136719 529.410156 525.300781 533.136719 C 524.683594 534.378906 524.148438 537.101562 524.105469 539.179688 L 524.03125 542.96875 Z M 528.949219 517.457031 C 528.949219 518.019531 530.273438 517.195312 531.890625 515.621094 C 533.507812 514.054688 534.820312 512.179688 534.808594 511.464844 C 534.792969 510.621094 533.746094 511.269531 531.867188 513.296875 C 530.261719 515.023438 528.949219 516.898438 528.949219 517.457031 Z M 535.253906 521.03125 C 538.027344 519.21875 540.628906 517.488281 541.039062 517.1875 C 541.449219 516.886719 541.878906 512.589844 542 507.640625 C 542.195312 499.671875 542.035156 498.46875 540.625 497.261719 C 539.75 496.511719 539.03125 494.847656 539.03125 493.558594 C 539.03125 490.375 536.320312 487.859375 532.886719 487.859375 C 530.890625 487.859375 529.417969 487.140625 527.6875 485.335938 C 526.359375 483.949219 525.007812 482.808594 524.6875 482.808594 C 524.367188 482.808594 522.742188 484.316406 521.082031 486.160156 C 517.597656 490.015625 510.460938 503.734375 510.460938 506.566406 C 510.460938 507.613281 509.703125 511.128906 508.78125 514.363281 C 507.855469 517.597656 507.140625 521.195312 507.191406 522.351562 C 507.25 523.707031 507.53125 523.214844 507.976562 520.945312 C 508.785156 516.855469 510.738281 512.796875 513.480469 509.503906 C 514.546875 508.222656 516.628906 504.914062 518.101562 502.144531 C 519.574219 499.378906 521.105469 497.113281 521.503906 497.113281 C 522.449219 497.113281 522.472656 496.96875 520.628906 502.335938 C 519.75 504.890625 517.523438 509.402344 515.683594 512.355469 C 512.074219 518.144531 512.085938 517.984375 514.277344 529.316406 C 515.175781 533.980469 516.34375 533.996094 516.351562 529.347656 C 516.367188 522.640625 517.269531 519.175781 520.199219 514.554688 C 521.738281 512.132812 523.839844 508.542969 524.878906 506.578125 C 526.59375 503.316406 528.949219 501.753906 528.949219 503.863281 C 528.949219 504.335938 527.429688 507.746094 525.570312 511.445312 C 522.511719 517.539062 518.886719 529.558594 518.871094 533.640625 C 518.859375 536.617188 520.074219 534.082031 521.121094 528.9375 C 521.847656 525.382812 523.320312 522.140625 525.976562 518.253906 C 529.496094 513.113281 536.042969 505.523438 536.960938 505.523438 C 537.175781 505.523438 537.351562 506.921875 537.351562 508.625 C 537.351562 513.523438 534.308594 518.828125 529.886719 521.628906 C 526.203125 523.972656 523.167969 528.0625 523.109375 530.769531 C 523.097656 531.464844 524.679688 530.308594 526.648438 528.183594 C 528.605469 526.0625 532.480469 522.84375 535.253906 521.03125 Z M 504.578125 533.015625 C 504.578125 534.515625 507.464844 539.59375 509.828125 542.246094 C 511.417969 544.03125 514.144531 547.578125 515.890625 550.121094 C 517.632812 552.664062 518.882812 554.179688 518.664062 553.488281 C 518.441406 552.789062 518.554688 549.78125 518.910156 546.792969 C 519.570312 541.304688 518.546875 537.917969 516.242188 537.917969 C 514.996094 537.917969 511.320312 530.859375 511.214844 528.253906 C 511.136719 526.351562 511.066406 526.398438 510.507812 528.738281 C 510.167969 530.164062 509.59375 531.808594 509.234375 532.394531 C 508.875 532.972656 507.683594 533.28125 506.582031 533.070312 C 505.480469 532.859375 504.578125 532.835938 504.578125 533.015625 Z M 506.335938 471.402344 C 506.894531 471.054688 507.035156 469.691406 506.695312 467.878906 C 506.144531 464.933594 502.457031 455.882812 501.808594 455.882812 C 501.621094 455.882812 502.359375 458.957031 503.445312 462.710938 C 504.53125 466.464844 505.417969 470.085938 505.417969 470.753906 C 505.417969 471.421875 505.828125 471.71875 506.335938 471.402344 Z M 507.074219 430.105469 C 508.433594 425.390625 508.617188 420.089844 504.679688 416.34375 C 502.886719 414.632812 497.6875 411.304688 493.125 408.945312 C 488.5625 406.582031 483.503906 403.703125 481.890625 402.546875 C 478.6875 400.25 478.527344 400.164062 478.527344 400.742188 C 478.527344 400.960938 480.925781 403.804688 483.855469 407.0625 C 490.46875 414.414062 492.78125 419.160156 495.761719 431.484375 C 497.9375 440.472656 502.449219 452.519531 503.640625 452.515625 C 503.925781 452.515625 504.179688 450.527344 504.207031 448.101562 C 504.273438 441.835938 505.382812 435.964844 507.074219 430.105469 Z M 488.792969 417.601562 C 487.488281 415.011719 483.613281 409.605469 483.058594 409.605469 C 482.890625 409.605469 483.648438 411.59375 484.742188 414.03125 C 489.390625 424.324219 492.195312 429.855469 492.578125 429.476562 C 493.070312 428.984375 490.5625 421.113281 488.792969 417.601562 Z M 498.175781 451.992188 C 497.429688 450.195312 496.492188 447.882812 496.097656 446.839844 C 494.933594 443.78125 494.609375 444.664062 495.476562 448.519531 C 495.917969 450.492188 497.003906 453.234375 497.894531 454.625 C 499.871094 457.714844 500.011719 456.390625 498.175781 451.992188 Z M 329.960938 513.976562 C 329.363281 513.957031 327.285156 515.484375 325.339844 517.371094 C 321.414062 521.164062 323.480469 520.5625 328.105469 516.554688 C 329.71875 515.15625 330.558594 513.996094 329.960938 513.976562 Z M 327.035156 520.351562 C 320.554688 525.25 317.273438 528.226562 316.234375 530.136719 C 314.644531 533.074219 317.191406 531.546875 324.46875 525.195312 C 328.511719 521.664062 333.253906 517.828125 335.003906 516.667969 C 336.753906 515.507812 338.1875 514.417969 338.1875 514.234375 C 338.1875 513.289062 331.585938 516.910156 327.035156 520.351562 Z M 340.289062 510.722656 L 345.941406 510.210938 C 349.050781 509.921875 354.15625 508.898438 357.285156 507.933594 C 363.332031 506.066406 377.191406 499.433594 378.089844 497.980469 C 378.851562 496.746094 378.515625 496.828125 371.597656 499.605469 C 368.179688 500.972656 361.035156 502.976562 355.726562 504.042969 C 348.160156 505.570312 345.449219 506.507812 343.179688 508.359375 Z M 371.777344 414.433594 C 371.726562 412.382812 370.175781 416.128906 368.167969 423.140625 C 365.753906 431.574219 364.644531 437.605469 365.871094 435.617188 C 366.785156 434.132812 371.816406 416.078125 371.777344 414.433594 Z M 370.105469 442.425781 C 370.085938 442.191406 367.589844 446.90625 364.566406 452.902344 C 361.527344 458.921875 357.179688 469.476562 354.859375 476.464844 C 349.953125 491.238281 348.226562 494.507812 342.496094 499.878906 C 340.167969 502.058594 338.554688 503.84375 338.914062 503.84375 C 340.3125 503.84375 357.273438 501.1875 360.550781 500.457031 C 362.449219 500.03125 367.910156 498.15625 372.6875 496.292969 C 377.464844 494.433594 381.875 492.90625 382.496094 492.90625 C 384.875 492.90625 384.339844 490.4375 380.6875 484.503906 C 374.378906 474.253906 372.058594 465.035156 370.105469 442.425781 Z M 466.59375 385.996094 C 462.195312 379.3125 458.140625 372.980469 457.585938 371.914062 C 456.804688 370.421875 456.828125 368.328125 456.710938 366.695312 C 456.503906 363.75 456.476562 360.792969 456.507812 357.847656 C 456.5625 352.925781 456.394531 347.375 457.761719 342.632812 C 458.0625 341.59375 458.757812 340.734375 458.863281 339.597656 C 459.113281 336.953125 454.738281 337.859375 452.992188 337.953125 C 439.796875 338.621094 432.476562 333.664062 425.945312 319.648438 L 422.644531 312.5625 L 421.867188 317.082031 C 421.351562 320.09375 421.472656 327.082031 422.230469 338.050781 C 424.164062 365.914062 423.628906 375.980469 420.277344 374.890625 C 418.683594 374.375 415.527344 365.527344 414.949219 359.957031 C 414.355469 354.277344 413.945312 354.316406 411.773438 360.214844 C 409.945312 365.195312 407.699219 366.734375 401.453125 367.28125 C 397.179688 367.65625 396 367.390625 391.675781 365.101562 C 386.066406 362.125 385.476562 362.027344 383.589844 363.734375 C 382.832031 364.421875 378.535156 365.9375 374.039062 367.105469 C 361.726562 370.304688 356.113281 373.167969 351.558594 378.546875 C 345.648438 385.53125 343.46875 389.339844 341.960938 395.300781 C 341.203125 398.316406 338.753906 406.453125 336.515625 413.398438 C 334.277344 420.335938 330.894531 431.03125 328.992188 437.164062 C 327.085938 443.296875 325.332031 448.3125 325.082031 448.3125 C 324.839844 448.3125 324.851562 446.515625 325.109375 444.316406 C 325.371094 442.117188 323.714844 447.324219 321.429688 455.882812 C 319.144531 464.445312 316.675781 475.960938 315.941406 481.464844 C 314.335938 493.511719 313.808594 495.957031 309.660156 510.574219 C 307.886719 516.820312 306.183594 523.632812 305.875 525.71875 C 305.566406 527.804688 304.914062 531.4375 304.417969 533.800781 C 303.296875 539.15625 304.542969 542.167969 308.773438 544.332031 C 316.609375 548.347656 328.527344 547.542969 347.851562 541.6875 C 357.292969 538.828125 362.855469 536.425781 376.035156 529.527344 C 385.066406 524.796875 393.574219 520.550781 394.945312 520.078125 C 398.164062 518.984375 398.046875 518.433594 391.894531 505.597656 L 386.890625 495.15625 L 384.597656 497.277344 C 383.335938 498.445312 381.078125 500.101562 379.574219 500.960938 C 378.074219 501.816406 376.84375 502.84375 376.84375 503.242188 C 376.84375 504.78125 361.09375 511.320312 354.011719 512.710938 C 343.839844 514.710938 335.910156 519.199219 326.949219 528.03125 C 321.367188 533.539062 319.402344 534.972656 317.453125 534.972656 C 311.875 534.972656 311.613281 531.382812 316.800781 525.960938 C 318.90625 523.761719 320.226562 521.828125 319.742188 521.671875 C 317.824219 521.027344 319.039062 517.417969 322.5625 513.28125 C 324.601562 510.890625 326.398438 508.613281 326.554688 508.21875 C 326.710938 507.820312 328.878906 506.132812 331.367188 504.460938 C 336.496094 501.027344 341.652344 495.160156 344.464844 489.558594 C 346.332031 485.835938 350.714844 473.089844 352.433594 466.402344 C 352.90625 464.554688 354.753906 460.160156 356.535156 456.648438 C 359.878906 450.0625 361.222656 445.527344 364.113281 431.0625 C 365.980469 421.738281 370.445312 408.5625 372.410156 406.59375 C 374.019531 404.984375 374.960938 405.316406 376.640625 408.082031 C 377.875 410.117188 377.867188 411.023438 376.539062 419.179688 C 375.746094 424.058594 374.378906 430.140625 373.5 432.6875 C 371.933594 437.25 371.9375 437.410156 373.589844 444.285156 C 374.507812 448.117188 375.628906 454.472656 376.074219 458.40625 C 377.136719 467.789062 379.832031 477.53125 382.238281 480.695312 C 383.296875 482.085938 384.984375 484.839844 385.984375 486.804688 C 387.847656 490.46875 388.515625 490.945312 389.910156 489.628906 C 390.351562 489.214844 394.679688 487.464844 399.535156 485.75 C 404.386719 484.027344 413.804688 480.5625 420.460938 478.050781 C 423.65625 476.839844 426.851562 475.628906 430.050781 474.421875 C 434.789062 472.640625 439.09375 473.777344 443.988281 474 C 450.277344 474.296875 457.6875 474.917969 460.457031 475.382812 C 463.230469 475.851562 467.039062 476.339844 468.917969 476.472656 C 470.796875 476.597656 474.199219 477.539062 476.480469 478.554688 C 478.761719 479.574219 483.613281 480.941406 487.265625 481.59375 C 490.917969 482.242188 494.597656 483.398438 495.441406 484.171875 C 496.292969 484.9375 497.726562 487.503906 498.636719 489.863281 L 500.289062 494.167969 L 500.332031 489.582031 C 500.355469 487.058594 500.835938 480.863281 501.394531 475.8125 C 502.398438 466.789062 502.378906 466.578125 500.429688 463.148438 C 492.78125 449.75 492.546875 449.136719 490.242188 436.109375 C 489.023438 429.230469 487.84375 426.308594 481.925781 415.5 C 479.519531 411.101562 476.886719 405.394531 476.074219 402.824219 C 475.21875 400.105469 471.234375 393.03125 466.59375 385.996094 Z M 435.03125 329.035156 C 437.257812 332.390625 443.839844 335.054688 450.375 335.234375 C 453.609375 335.332031 454.933594 335.246094 453.316406 335.054688 C 447.109375 334.3125 442.914062 332.871094 438.75 330.066406 C 433.660156 326.636719 433.390625 326.558594 435.03125 329.035156 Z M 460.050781 328.683594 C 462.117188 327.105469 464.65625 324.316406 465.695312 322.488281 C 468.09375 318.25 468.136719 316.992188 465.78125 319.992188 C 462.3125 324.402344 455.601562 325.839844 450.542969 323.25 C 440.453125 318.089844 429.539062 308.285156 425.59375 300.835938 C 424.460938 298.699219 423.453125 297.03125 423.359375 297.128906 C 423.261719 297.230469 423.695312 300.007812 424.324219 303.308594 C 425.773438 310.925781 428.859375 317.015625 434.039062 322.5 C 439.183594 327.949219 444.4375 330.609375 451.109375 331.144531 C 456 331.535156 456.496094 331.402344 460.050781 328.683594 Z M 465.699219 328.011719 C 468.878906 326.070312 475.199219 317.761719 478.511719 311.164062 C 484.257812 299.734375 488.152344 283.136719 487.992188 270.757812 C 487.894531 263.074219 485.691406 249.609375 483.46875 243.136719 C 482.066406 239.046875 476.613281 229.550781 475.667969 229.550781 C 475.492188 229.550781 476.816406 232.484375 478.613281 236.078125 C 485.78125 250.371094 485.386719 273.660156 477.582031 297.074219 C 473.230469 310.136719 467.671875 322.5625 464.550781 326.210938 C 461.28125 330.035156 461.589844 330.515625 465.699219 328.011719 Z M 480.59375 314.535156 C 481.070312 314.535156 484.410156 308.183594 484.410156 307.273438 C 484.410156 306.351562 483.921875 307.085938 481.976562 310.953125 C 480.984375 312.925781 480.363281 314.535156 480.59375 314.535156 Z M 463.964844 225.019531 C 458.695312 222.417969 457.859375 223.429688 462.152344 227.214844 C 464.367188 229.167969 467.402344 232.667969 468.90625 235 C 470.40625 237.324219 473.382812 241.046875 475.527344 243.269531 C 479.160156 247.035156 479.386719 247.148438 478.902344 244.953125 C 477.121094 236.851562 470.765625 228.375 463.964844 225.019531 Z M 450.097656 224.160156 C 449.480469 224.351562 448.253906 224.503906 447.363281 224.503906 C 444.230469 224.503906 445.820312 225.804688 451.398438 227.808594 C 454.503906 228.925781 459.042969 230.890625 461.484375 232.171875 C 463.925781 233.460938 465.921875 234.183594 465.921875 233.78125 C 465.921875 233.382812 463.746094 231.316406 461.089844 229.191406 C 456.292969 225.351562 452.246094 223.503906 450.097656 224.160156 Z M 438.453125 229.703125 C 435.898438 232.105469 435.984375 233.074219 438.664062 232.058594 C 441.917969 230.816406 447.664062 231.070312 449.769531 232.546875 C 453.246094 234.984375 451.851562 239.617188 445.210938 247.734375 L 442.378906 251.199219 C 445.871094 252.476562 449.46875 253.730469 452.824219 255.363281 C 454.957031 256.398438 457.621094 257.253906 460.011719 257.019531 C 462.464844 256.773438 465.105469 255.71875 466.519531 253.589844 C 469.273438 249.441406 471.121094 244.113281 468.84375 239.304688 C 467.214844 235.867188 466.039062 235.238281 452.898438 230.761719 C 443.011719 227.394531 441.058594 227.25 438.453125 229.703125 Z M 425.132812 256.476562 L 424.566406 259.421875 L 428.058594 255.933594 C 430.34375 253.652344 432.820312 252.125 435.222656 251.523438 C 438.003906 250.820312 439.832031 249.53125 442.796875 246.175781 C 447.371094 241 449.417969 237.449219 448.78125 235.785156 C 448.105469 234.023438 442.957031 234.328125 438.582031 236.382812 C 431.660156 239.644531 427.058594 246.523438 425.132812 256.476562 Z M 425.652344 294.511719 C 429.484375 304.242188 437.867188 313.570312 448.386719 319.800781 C 457.390625 325.132812 462.1875 323.8125 467.617188 314.507812 C 472.5625 306.027344 475.644531 297.023438 478.199219 283.589844 C 481.195312 267.839844 481.328125 255.355469 478.570312 249.085938 C 477.492188 246.636719 475.625 243.859375 474.417969 242.910156 L 472.226562 241.175781 C 472.226562 241.175781 471.683594 244.898438 471.683594 244.898438 C 471.390625 246.925781 470.714844 248.902344 469.914062 250.789062 C 469.480469 251.808594 469.199219 252.46875 468.757812 253.179688 C 465.40625 258.566406 456.21875 258.207031 451.308594 255.464844 C 450.695312 255.285156 449.941406 255.03125 449.105469 254.710938 C 442.289062 252.121094 441.527344 252.378906 434.828125 259.632812 C 431.515625 263.21875 428.257812 267.195312 427.59375 268.46875 C 426.925781 269.742188 425.835938 275.160156 425.175781 280.511719 C 424.023438 289.8125 424.042969 290.425781 425.652344 294.511719 Z M 424.449219 265.308594 C 435.320312 254.140625 437.566406 250.835938 431.46875 255.007812 C 429.945312 256.050781 427.558594 258.984375 426.164062 261.523438 C 424.769531 264.070312 423.996094 265.773438 424.449219 265.308594 Z M 419.152344 353.449219 C 418.257812 348.316406 417.84375 350.699219 418.449219 357.527344 C 418.78125 361.273438 419.382812 365.34375 419.789062 366.570312 C 420.566406 368.914062 420.070312 358.714844 419.152344 353.449219 Z M 416.601562 294.542969 C 416.613281 295.375 416.386719 296.855469 416.585938 297.902344 C 416.789062 298.953125 416.675781 298.273438 416.96875 296.445312 C 420.015625 277.351562 416.339844 272.859375 416.601562 294.542969 Z M 405.890625 361.007812 C 403.527344 361.738281 401.945312 361.558594 397.097656 359.996094 C 393.847656 358.949219 390.515625 357.582031 389.6875 356.953125 C 387.503906 355.292969 386.890625 355.507812 387.671875 357.652344 C 388.050781 358.695312 390.074219 360.617188 392.167969 361.917969 C 396.804688 364.8125 404.480469 365.28125 407.175781 362.839844 C 409.574219 360.664062 409.117188 360.023438 405.890625 361.007812 Z M 362.796875 356.621094 C 360.949219 356.605469 359.148438 357.4375 357.097656 359.238281 C 355.445312 360.691406 354.230469 362.007812 354.394531 362.171875 C 354.558594 362.335938 357.125 361.160156 360.097656 359.558594 C 365.160156 356.824219 365.332031 356.640625 362.796875 356.621094 Z M 380.207031 352.351562 C 372.429688 348.75 363.488281 348.050781 357.9375 350.621094 C 356.085938 351.472656 353.726562 353.09375 352.691406 354.21875 C 350.746094 356.339844 345.613281 367.550781 342.546875 376.375 C 339.933594 383.902344 334.65625 403.625 334.984375 404.625 C 335.144531 405.101562 336.742188 401.402344 338.539062 396.398438 C 343.007812 383.941406 343.992188 382.175781 350.09375 375.667969 C 354.453125 371.015625 356.496094 369.550781 361.386719 367.589844 C 364.671875 366.261719 369.585938 364.746094 372.3125 364.203125 C 379.089844 362.859375 382.726562 361.664062 382.726562 360.773438 C 382.726562 359.136719 378.980469 358.09375 374.820312 358.574219 C 369.730469 359.167969 356.929688 365.28125 352.054688 369.449219 C 348.835938 372.203125 346.589844 372.695312 346.589844 370.644531 C 346.589844 370.117188 347.601562 367.105469 348.839844 363.949219 C 350.375 360.035156 352.140625 357.261719 354.425781 355.195312 C 357.757812 352.175781 357.789062 352.171875 363.734375 352.671875 C 367.015625 352.949219 372.914062 353.382812 376.84375 353.640625 L 383.988281 354.109375 Z M 484.570312 501.378906 C 483.914062 501.34375 483.71875 501.746094 484.089844 502.375 C 485.488281 504.75 491.898438 512.796875 493.644531 514.363281 C 495.199219 515.753906 494.976562 514.933594 492.332031 509.585938 C 489.390625 503.617188 487.40625 501.523438 484.570312 501.378906 Z M 491.851562 498.96875 C 492.828125 500.492188 493.632812 501.421875 493.640625 501.027344 C 493.660156 499.96875 490.859375 495.425781 490.441406 495.839844 C 490.242188 496.039062 490.878906 497.449219 491.851562 498.96875 Z M 504.207031 494.167969 C 505.457031 484.769531 505.75 474.171875 504.789062 473.199219 C 503.660156 472.066406 502.992188 478.785156 503.042969 490.804688 L 503.089844 502.582031 Z M 498.945312 529.296875 C 499.144531 530.332031 499.308594 529.484375 499.308594 527.398438 C 499.308594 525.320312 499.144531 524.464844 498.945312 525.507812 C 498.742188 526.550781 498.742188 528.253906 498.945312 529.296875 Z M 501.628906 526.140625 L 502.277344 529.507812 L 503.34375 526.992188 C 505.386719 522.152344 503.246094 516.265625 496.1875 507.324219 C 494.308594 504.953125 492.589844 503.003906 492.363281 503.003906 C 492.136719 503.003906 492.484375 504.234375 493.136719 505.734375 C 493.785156 507.242188 495.816406 511.6875 497.648438 515.621094 C 499.480469 519.554688 501.269531 524.292969 501.628906 526.140625 Z M 399.835938 517.140625 C 401.847656 516.601562 413.476562 509.929688 421.667969 504.601562 C 426.363281 501.546875 432.570312 497.992188 435.457031 496.703125 L 440.710938 494.359375 L 445.910156 496.695312 C 453.515625 500.113281 458.777344 501.300781 466.382812 501.3125 L 473.144531 501.316406 L 476.464844 504.765625 C 478.292969 506.664062 481.882812 509.652344 484.445312 511.410156 C 490.351562 515.464844 490.933594 516.199219 493.296875 522.570312 C 495.039062 527.261719 495.25 527.527344 495.289062 525.03125 C 495.347656 521.355469 494.980469 520.75 485.675781 509.152344 C 475.371094 496.300781 475.234375 494.796875 484.6875 498.234375 L 490.140625 500.214844 L 488.777344 497.355469 C 487.398438 494.457031 487.910156 492.160156 490.105469 491.425781 C 490.628906 491.25 492.988281 494.960938 495.347656 499.667969 C 497.710938 504.375 499.824219 508.042969 500.050781 507.820312 C 500.277344 507.589844 498.667969 502.589844 496.484375 496.703125 C 493.554688 488.816406 492.050781 485.828125 490.769531 485.351562 C 481.746094 481.996094 472.910156 480.039062 461.925781 478.960938 C 455.113281 478.292969 447.078125 477.421875 444.070312 477.039062 C 432.867188 475.59375 431.851562 475.753906 421.433594 480.617188 C 416.089844 483.109375 407.164062 486.730469 401.601562 488.660156 C 396.035156 490.589844 391.03125 492.449219 390.476562 492.785156 C 389.738281 493.246094 390.105469 494.957031 391.875 499.257812 C 393.199219 502.472656 395.316406 507.875 396.578125 511.246094 C 397.839844 514.628906 399.304688 517.277344 399.835938 517.140625 Z M 383.25 585.246094 C 378.121094 600.910156 375.257812 614.941406 374.351562 628.789062 C 373.867188 636.191406 372.539062 648.691406 371.398438 656.554688 C 369.0625 672.679688 365.453125 702.351562 364.746094 711.246094 C 364.398438 715.632812 365.109375 713.164062 367.53125 701.566406 C 369.320312 693.007812 371.925781 681.269531 373.328125 675.484375 C 376.503906 662.378906 377.957031 652.4375 380.199219 628.367188 C 381.171875 617.957031 382.890625 602.8125 384.027344 594.714844 C 385.160156 586.625 386.085938 579.714844 386.085938 579.363281 C 386.085938 577.492188 385.160156 579.414062 383.25 585.246094 Z M 332.804688 838.207031 C 328.816406 846.953125 325.726562 854.285156 325.9375 854.492188 C 326.890625 855.449219 340.710938 825.589844 340.710938 822.566406 C 340.710938 820.960938 340.308594 821.75 332.804688 838.207031 Z M 266.605469 1059.152344 L 266.523438 1051.160156 L 265.875 1058.734375 C 265.519531 1062.898438 265.03125 1068.769531 264.796875 1071.777344 L 264.761719 1072.164062 C 264.800781 1072.265625 264.835938 1072.367188 264.871094 1072.46875 C 264.960938 1072.710938 265.046875 1073.148438 265.246094 1073.402344 L 265.523438 1072.195312 C 266.164062 1069.421875 266.648438 1063.550781 266.605469 1059.152344 Z M 257.957031 1107.953125 C 257.261719 1109.113281 255.527344 1113.847656 254.105469 1118.476562 C 252.679688 1123.101562 249.097656 1134.082031 246.140625 1142.871094 C 243.183594 1151.667969 240.511719 1160.5625 240.203125 1162.648438 L 239.644531 1166.429688 L 242.640625 1163.585938 C 244.289062 1162.023438 246.460938 1158.824219 247.464844 1156.484375 C 249.070312 1152.746094 257.234375 1118.351562 258.683594 1109.21875 C 259.207031 1105.929688 259.191406 1105.902344 257.957031 1107.953125 Z M 260.75 1090.285156 C 259.839844 1093.296875 258.898438 1096.324219 258.660156 1097.015625 C 258.273438 1098.140625 258.328125 1098.140625 259.132812 1097.015625 C 260.53125 1095.074219 263.121094 1086.140625 263.644531 1081.453125 L 264.113281 1077.246094 L 263.261719 1081.035156 C 262.789062 1083.113281 261.660156 1087.277344 260.75 1090.285156 Z M 257.515625 1088.179688 C 256.585938 1091.804688 255.964844 1094.910156 256.132812 1095.074219 C 256.417969 1095.363281 258.328125 1088.796875 259.601562 1083.136719 C 260.792969 1077.851562 259.121094 1081.894531 257.515625 1088.179688 Z M 252.539062 1102.910156 C 251.59375 1104.890625 251.613281 1104.917969 252.84375 1103.378906 C 253.5625 1102.476562 254.152344 1101.375 254.152344 1100.925781 C 254.152344 1099.855469 253.765625 1100.332031 252.539062 1102.910156 Z M 509.390625 1183.679688 L 510.0625 1188.308594 L 515.515625 1188.960938 C 521.574219 1189.683594 529.789062 1189.035156 529.789062 1187.824219 C 529.789062 1186.226562 523.296875 1180.644531 518.425781 1178.058594 C 515.652344 1176.582031 512.441406 1174.375 511.292969 1173.148438 L 509.199219 1170.90625 L 508.960938 1174.980469 C 508.828125 1177.21875 509.023438 1181.136719 509.390625 1183.679688 Z M 415.785156 304.226562 C 415.550781 304.804688 415.550781 305.75 415.785156 306.328125 C 416.015625 306.910156 416.207031 306.433594 416.207031 305.277344 C 416.207031 304.121094 416.015625 303.644531 415.785156 304.226562 Z M 230.671875 1159.140625 C 232.074219 1154.355469 235.648438 1142.027344 238.617188 1131.742188 C 241.84375 1120.570312 245.742188 1109.21875 248.296875 1103.554688 C 250.652344 1098.339844 253.910156 1090.300781 255.539062 1085.6875 C 257.167969 1081.082031 259.21875 1075.902344 260.09375 1074.183594 C 261.226562 1071.964844 261.925781 1067.863281 262.527344 1059.953125 C 262.992188 1053.839844 263.800781 1048.320312 264.328125 1047.6875 C 265.480469 1046.292969 267.757812 1046.1875 269.035156 1047.472656 C 270.125 1048.5625 270.632812 1044.75 271.402344 1029.707031 C 271.671875 1024.382812 272.457031 1016.621094 273.140625 1012.457031 C 274.621094 1003.480469 281.253906 968.863281 283.214844 959.875 C 285.164062 950.925781 296.394531 916.921875 301.742188 903.753906 C 304.226562 897.644531 306.847656 890.097656 307.570312 886.976562 C 308.292969 883.855469 310.226562 877.871094 311.859375 873.679688 C 311.957031 873.433594 312.054688 873.1875 312.148438 872.9375 C 318.808594 855.742188 324.851562 838.289062 330.957031 820.886719 C 334.238281 811.539062 337.488281 802.183594 340.679688 792.808594 C 341.859375 789.332031 343.035156 785.851562 344.179688 782.363281 C 347.171875 773.238281 350.902344 764.988281 352.464844 755.480469 C 354.460938 743.339844 355.792969 731.089844 357.148438 718.867188 C 359.195312 700.386719 361.996094 677.097656 363.375 667.121094 C 364.75 657.144531 366.457031 641.722656 367.164062 632.855469 C 367.875 623.988281 368.835938 614.734375 369.296875 612.292969 C 369.757812 609.855469 370.726562 603.886719 371.445312 599.035156 C 373.425781 585.679688 375.585938 580.144531 387.742188 557.273438 C 397.921875 538.113281 398.953125 535.769531 399.324219 530.980469 C 399.675781 526.414062 399.539062 525.71875 398.285156 525.71875 C 397.492188 525.71875 391.304688 528.414062 384.53125 531.703125 C 365.039062 541.171875 362.03125 542.28125 342.515625 547.179688 C 339.917969 547.832031 337.328125 548.480469 334.730469 549.132812 C 332.097656 549.792969 329.21875 550.800781 326.417969 551.269531 C 323.207031 551.8125 320.886719 551.199219 317.78125 550.601562 C 313.867188 549.847656 305.210938 548.113281 303.035156 544.265625 C 300.210938 539.277344 302.515625 532.484375 303.132812 527.28125 C 303.65625 522.863281 304.722656 518.554688 305.941406 514.285156 C 307.535156 508.6875 310.117188 496.382812 311.679688 486.9375 C 313.371094 476.707031 317.949219 455.859375 323 435.355469 C 333.742188 391.742188 338.894531 374.675781 345.027344 362.324219 C 350.78125 350.75 356.128906 346.542969 365.078125 346.542969 C 372.035156 346.550781 376.242188 347.777344 387.769531 353.1875 C 399.800781 358.839844 404.078125 359.863281 407.738281 357.96875 C 410.472656 356.550781 412.226562 351.738281 413.746094 341.457031 C 414.191406 338.453125 415.144531 332.203125 415.863281 327.578125 C 417.308594 318.285156 417.449219 315.179688 416.238281 319.371094 C 415.808594 320.878906 415.109375 322.105469 414.6875 322.105469 C 413.28125 322.105469 412.558594 314.246094 412.597656 299.386719 C 412.632812 287.3125 413.035156 282.46875 414.835938 272.460938 C 416.046875 265.753906 417.277344 257.234375 417.582031 253.53125 C 418.683594 239.992188 420.011719 236.546875 427.964844 226.628906 C 433.035156 220.308594 437.867188 217.683594 445.085938 217.328125 C 447.992188 217.179688 451.320312 217.234375 452.476562 217.441406 C 453.632812 217.652344 458.273438 218.804688 462.792969 220.007812 C 475.273438 223.332031 479.757812 227.359375 486.105469 240.914062 C 491.066406 251.519531 491.464844 254.367188 490.835938 274.960938 C 490.191406 296.167969 489.117188 302.265625 484.355469 311.742188 C 480.65625 319.101562 478.207031 322.003906 468.664062 330.335938 C 459.902344 337.996094 459.199219 339.957031 459.199219 356.75 C 459.199219 372.101562 458.871094 371.082031 467.5 382.574219 C 475.367188 393.054688 482.472656 399.039062 494.65625 405.457031 C 510.996094 414.054688 511.675781 415.644531 508.453125 437.796875 C 505.816406 455.957031 505.796875 456.769531 507.949219 462.441406 C 509.515625 466.566406 509.574219 467.679688 508.761719 478.003906 C 508.28125 484.117188 507.378906 493.855469 506.761719 499.636719 C 506.140625 505.421875 505.710938 510.246094 505.804688 510.359375 C 505.902344 510.476562 508.320312 505.179688 511.179688 498.582031 C 518.882812 480.839844 523.113281 477.195312 529.5 482.808594 C 531.078125 484.195312 533.230469 485.335938 534.28125 485.335938 C 536.753906 485.335938 540.714844 489.472656 540.714844 492.058594 C 540.714844 493.160156 541.546875 494.949219 542.570312 496.035156 C 544.289062 497.867188 544.40625 498.703125 544.191406 507.433594 C 544.0625 512.675781 543.550781 517.34375 543.035156 517.964844 C 542.53125 518.574219 539.921875 520.621094 537.234375 522.5 C 534.550781 524.386719 532.164062 526.542969 531.929688 527.296875 C 530.714844 531.195312 527.957031 546.425781 527.269531 553.066406 C 526.832031 557.230469 525.691406 563.042969 524.726562 565.976562 L 522.96875 571.324219 L 526.324219 581.125 C 534.195312 604.113281 535.253906 612.402344 535.253906 651.085938 C 535.253906 667.976562 534.757812 690.691406 534.15625 701.566406 C 533.550781 712.441406 532.710938 727.964844 532.285156 736.066406 C 531.054688 759.371094 529.03125 783.816406 527.679688 791.597656 C 525.941406 801.597656 524.460938 824.410156 525.042969 832.175781 C 525.3125 835.757812 526.738281 843.707031 528.210938 849.847656 C 530.527344 859.492188 530.898438 862.609375 530.964844 872.792969 C 531.03125 883.078125 530.746094 885.742188 528.691406 893.824219 C 527.398438 898.914062 525.636719 908.003906 524.773438 914.019531 C 522.875 927.273438 521.199219 937.484375 518.015625 955.246094 C 516.6875 962.648438 515.167969 972.683594 514.640625 977.539062 C 514.113281 982.402344 512.953125 990.730469 512.066406 996.050781 C 511.175781 1001.371094 510.078125 1012.351562 509.621094 1020.453125 C 507.730469 1054.078125 507.011719 1065.074219 506.15625 1073.503906 C 505.488281 1080.039062 505.511719 1085.601562 506.246094 1094.539062 C 506.789062 1101.226562 507.5625 1116.914062 507.964844 1129.410156 C 508.742188 1153.636719 509.5625 1159.261719 513.425781 1166.894531 C 515.042969 1170.089844 516.726562 1171.847656 520.363281 1174.136719 C 529.621094 1179.96875 534.890625 1186.316406 533.15625 1189.558594 C 531.695312 1192.289062 529.316406 1193.019531 517.738281 1194.273438 C 511.65625 1194.933594 505.066406 1195.699219 503.089844 1195.976562 C 498.703125 1196.589844 497.8125 1195.929688 494.402344 1189.527344 C 492.976562 1186.847656 489.980469 1182.382812 487.746094 1179.605469 C 482.488281 1173.070312 481.53125 1171.132812 479.355469 1162.585938 C 478.363281 1158.683594 476.203125 1151.894531 474.558594 1147.5 C 472.910156 1143.105469 471.199219 1138.195312 470.753906 1136.585938 C 470.230469 1134.710938 467.875 1131.640625 464.148438 1128 C 459.390625 1123.351562 458.359375 1121.863281 458.359375 1119.667969 C 458.359375 1115.855469 463.011719 1108.191406 466.929688 1105.554688 C 468.746094 1104.332031 471.160156 1102.570312 472.296875 1101.644531 L 474.359375 1099.964844 L 472.683594 1083.558594 C 471.757812 1074.53125 470.222656 1057.871094 469.269531 1046.535156 C 467.605469 1026.757812 466.210938 1017.992188 462.597656 1004.644531 C 458.390625 989.09375 457.277344 969.949219 459.6875 954.503906 C 462.394531 937.117188 465.421875 926.972656 477.667969 894.246094 C 479.300781 889.882812 480.921875 885.664062 481.902344 881.128906 C 483.316406 874.574219 481.691406 867.972656 481.070312 861.429688 C 477.410156 822.78125 475.871094 808.84375 471.402344 773.925781 C 466.734375 737.480469 464.75 719.519531 463.726562 704.511719 C 463.410156 699.886719 462.433594 694.015625 461.554688 691.472656 C 459.335938 685.050781 457.519531 676.09375 457.519531 671.59375 C 457.519531 669.511719 457.175781 668.027344 456.757812 668.285156 C 456.339844 668.546875 454.867188 671.878906 453.484375 675.695312 C 448.933594 688.285156 444.078125 699.292969 437.433594 712.085938 C 431.488281 723.53125 426.96875 733.4375 411.378906 769.195312 C 408.578125 775.621094 405.25 782.628906 403.976562 784.761719 C 400.824219 790.070312 377.09375 839.730469 370.933594 853.90625 C 369.617188 856.945312 367.960938 863.003906 367.253906 867.371094 C 364.925781 881.761719 363.066406 886.460938 354.78125 898.871094 C 348.074219 908.917969 345.828125 911.28125 343.421875 910.820312 C 342.371094 910.617188 341.347656 910.714844 341.152344 911.035156 C 340.957031 911.351562 340.378906 915.746094 339.867188 920.804688 C 338.539062 933.933594 333.09375 954.980469 325.519531 976.28125 C 323.707031 981.371094 321.074219 989.660156 319.667969 994.707031 C 318.261719 999.753906 315.773438 1006.757812 314.136719 1010.273438 C 312.5 1013.789062 309.480469 1021.207031 307.429688 1026.761719 C 305.378906 1032.316406 303.152344 1038.183594 302.488281 1039.804688 C 301.820312 1041.421875 299.53125 1047.476562 297.40625 1053.253906 C 293.765625 1063.160156 293.492188 1064.488281 292.699219 1076.394531 C 292.03125 1086.394531 291.425781 1090.105469 289.808594 1094.21875 C 285.90625 1104.128906 281.863281 1119.972656 279.785156 1133.488281 C 278.054688 1144.738281 276.765625 1149.773438 272.296875 1162.71875 C 267.019531 1177.992188 265.203125 1181.726562 259.195312 1189.671875 C 255.4375 1194.632812 252.222656 1196.722656 245.773438 1198.398438 C 241.253906 1199.566406 240.300781 1199.585938 238.199219 1198.535156 C 234.1875 1196.535156 228.25 1191.117188 227.148438 1188.460938 C 225.667969 1184.875 227.429688 1170.199219 230.671875 1159.140625 " fill-opacity="1" fill-rule="nonzero"/></g></svg>